<?xml version="1.0" encoding="utf-8"?>
<!-- Generator: Adobe Illustrator 17.1.0, SVG Export Plug-In . SVG Version: 6.00 Build 0)  -->
<!DOCTYPE svg PUBLIC "-//W3C//DTD SVG 1.1//EN" "http://www.w3.org/Graphics/SVG/1.1/DTD/svg11.dtd">
<svg version="1.1" id="Layer_1" xmlns="http://www.w3.org/2000/svg" xmlns:xlink="http://www.w3.org/1999/xlink" x="0px" y="0px"
	 viewBox="142.7 0.1 354.8 479.8" enable-background="new 142.7 0.1 354.8 479.8" xml:space="preserve">
<g>
	<path d="M497.4,240.5c0,45.2,0,90.5,0,135.7c0,55.5-43.7,101.9-99.2,103c-52,1-104.2,1-156.4,0c-55.1-1.2-98.8-46.8-99-102.1
		c-0.2-91.4-0.2-182.9,0-274.3C143,48.9,184,3.7,237.9,1.7c54.7-2.1,109.8-2.1,164.5,0c54.3,2.1,94.9,47.9,95.1,102.3
		C497.4,149.4,497.4,194.9,497.4,240.5z M320.3,322.1c30.7,0,61.5,0.2,92.2,0c31.3-0.2,51.8-20.7,52-52c0-54.9,0-109.8,0-164.7
		c0-31.1-20.7-52-51.8-52.2c-61.5-0.2-122.8-0.2-184.4,0c-31.9,0-52.4,20.5-52.4,52.4c-0.2,54.5-0.2,109,0,163.7
		c0,32.7,20.3,52.4,53.2,52.6C259.4,322.1,289.9,322.1,320.3,322.1z M270,397.8c-0.2,27.8,21.8,50.3,49.3,50.8
		c27.8,0.4,51.2-22.6,51.2-50.1c0-26.9-23-50.1-50.1-50.3C293,347.4,270.2,370.2,270,397.8z"/>
	<path d="M236.2,165.1c0-7.3-0.2-14.5,0-21.8c0.4-12.6,9.1-21.8,21.1-22.6c12.6-0.8,23.8,7.3,24.7,20.1c1,15.7,1,31.7,0,47.6
		c-0.8,12.6-11.6,20.9-24.2,20.5c-12.4-0.4-21.1-9.7-21.5-23C236,179,236.2,172.2,236.2,165.1z"/>
	<path d="M403,164.5c0,7.3,0.2,14.5,0,21.8c-0.4,12.8-8.9,22-20.9,22.6c-13.1,0.8-24.2-7.7-24.9-20.7c-0.8-15.5-0.8-31.1,0-46.6
		c0.8-12.8,11.4-21.1,24-20.7c12.4,0.4,21.3,9.5,21.8,23C403.2,150.8,403,157.7,403,164.5z"/>
	<path d="M320.3,354.7c24.9,0.2,43.3,19.3,43.3,44.1c-0.2,23.8-19.7,43.3-43.5,43.5c-23.6,0.2-44.3-20.3-44.1-44.1
		C276,374.1,296.1,354.5,320.3,354.7z"/>
</g>
</svg>
